<?xml version="1.0" standalone="no"?>
<!DOCTYPE svg PUBLIC "-//W3C//DTD SVG 20010904//EN"
 "http://www.w3.org/TR/2001/REC-SVG-20010904/DTD/svg10.dtd">
<svg version="1.0" xmlns="http://www.w3.org/2000/svg"
 width="1268.000000pt" height="1268.000000pt" viewBox="0 0 1268.000000 1268.000000"
 preserveAspectRatio="xMidYMid meet">
<metadata>
Created by potrace 1.11, written by Peter Selinger 2001-2013
</metadata>
<g transform="translate(0.000000,1268.000000) scale(0.100000,-0.100000)"
fill="#000000" stroke="none">
<path d="M2183 9033 c-169 -29 -329 -123 -448 -264 -62 -73 -147 -242 -170
-339 -8 -33 -18 -138 -18 -195 0 -194 56 -292 373 -654 88 -101 159 -189 157
-195 -3 -8 -302 -12 -1040 -14 l-1037 -2 0 -479 c0 -374 3 -480 13 -483 6 -2
524 -3 1150 -2 1057 2 1427 6 1502 19 17 3 46 7 65 9 19 3 35 5 35 6 0 1 7 3
15 5 8 1 22 4 30 6 27 7 145 71 191 105 39 28 142 133 167 170 61 90 123 241
137 336 19 126 6 266 -33 348 -22 48 -256 378 -283 400 -3 3 -37 46 -74 95
-38 50 -71 92 -74 95 -17 14 -91 130 -91 142 0 11 105 13 595 14 l595 1 1 -36
c0 -20 1 -412 1 -873 0 -764 2 -837 17 -840 13 -3 885 -2 961 1 l25 1 0 873 0
874 555 0 c305 1 563 2 573 2 16 1 17 29 17 447 l0 445 -1916 -3 c-1491 -2
-1932 -6 -1991 -15z m3747 -428 c0 -221 -3 -285 -12 -286 -7 0 -265 -1 -573
-2 l-560 -2 0 -872 0 -873 -30 -1 c-16 0 -169 -1 -340 -1 l-310 0 -1 873 -1
874 -679 0 c-373 1 -694 -3 -713 -7 -96 -19 -153 -134 -115 -227 15 -36 111
-172 216 -306 50 -65 114 -149 205 -270 70 -93 92 -125 87 -125 -4 0 0 -8 9
-17 24 -28 44 -121 41 -197 -8 -203 -112 -391 -277 -500 -104 -69 -164 -82
-417 -92 -84 -3 -2219 -8 -2283 -5 -15 1 -18 10 -17 59 0 31 0 64 -1 72 0 8 1
90 2 181 1 92 -1 171 -5 177 -3 6 -3 13 2 16 4 3 5 29 2 59 -3 30 -4 60 -2 66
3 8 270 11 985 11 l982 0 48 42 c51 43 66 69 73 131 4 33 -13 84 -36 107 -3 3
-25 30 -50 60 -24 30 -63 75 -86 100 -23 25 -55 61 -70 80 -16 19 -34 40 -40
45 -9 8 -98 115 -138 165 -87 110 -117 187 -118 296 0 180 49 307 182 467 21
25 108 91 150 114 57 31 121 52 180 59 30 3 56 7 57 8 1 0 823 2 1827 3 l1826
3 0 -285z"/>
<path d="M6570 9026 c0 -2 -21 -64 -46 -137 -25 -74 -68 -199 -95 -279 -28
-80 -54 -154 -59 -165 -4 -11 -11 -29 -14 -40 -5 -22 -33 -102 -161 -470 -149
-429 -196 -569 -207 -605 -6 -19 -15 -41 -20 -47 -6 -7 -8 -13 -4 -13 3 0 -1
-17 -10 -37 -9 -21 -17 -42 -18 -48 -2 -5 -5 -17 -9 -25 -3 -8 -23 -69 -46
-135 -22 -66 -61 -178 -86 -250 -25 -71 -48 -137 -50 -145 -2 -8 -19 -60 -39
-114 -19 -55 -33 -102 -31 -105 3 -2 228 -5 501 -5 431 -1 497 1 504 14 4 8
28 82 53 163 25 82 47 151 50 154 5 4 273 4 736 0 l194 -2 24 -70 c13 -38 25
-79 27 -90 3 -11 11 -39 20 -62 8 -24 13 -43 9 -43 -3 0 -1 -6 4 -12 6 -7 13
-25 17 -40 l6 -28 128 0 c70 -1 294 -2 498 -3 l372 -3 -13 40 c-6 23 -38 115
-69 206 -32 91 -91 264 -132 385 -42 121 -79 229 -84 240 -5 11 -23 61 -39
110 -45 135 -53 158 -62 180 -7 18 -54 155 -129 375 -16 47 -59 171 -96 275
-36 105 -74 215 -84 245 -10 30 -53 154 -95 275 -42 121 -84 241 -92 268 l-16
47 -669 0 c-367 0 -668 -2 -668 -4z m1230 -176 c6 -11 8 -20 4 -20 -3 0 -2 -6
4 -12 6 -7 11 -16 11 -20 1 -4 3 -13 6 -20 24 -73 46 -138 120 -353 94 -271
119 -342 217 -630 36 -104 73 -207 81 -227 9 -21 14 -38 12 -38 -2 0 3 -17 11
-37 9 -20 18 -44 20 -52 5 -22 69 -204 75 -216 3 -6 11 -30 18 -55 7 -25 17
-54 22 -65 10 -23 62 -175 119 -345 21 -63 46 -132 54 -152 28 -65 33 -63
-151 -61 -93 1 -239 2 -326 2 -117 1 -159 4 -162 14 -13 41 -46 153 -65 217
-12 41 -26 85 -32 97 l-11 22 -421 1 c-231 1 -492 2 -579 2 -86 1 -159 -1
-161 -3 -2 -2 -24 -71 -50 -154 -26 -82 -49 -156 -51 -162 -3 -7 -12 -13 -22
-14 -88 -3 -636 0 -640 5 -5 5 170 530 197 591 5 11 27 74 49 140 22 66 74
219 116 340 42 121 87 252 100 290 13 39 54 156 90 260 36 105 81 235 100 290
47 139 111 325 124 358 l11 27 549 0 c540 0 550 0 561 -20z"/>
<path d="M7250 8520 c0 -10 -37 -116 -101 -285 -17 -44 -32 -87 -34 -95 -2 -8
-9 -28 -15 -45 -16 -40 -180 -496 -185 -515 -2 -8 -13 -42 -25 -75 -29 -81
-33 -105 -18 -106 47 -3 769 -1 773 3 4 4 -183 565 -309 928 -26 74 -49 140
-51 145 -2 6 -6 20 -10 33 -7 22 -25 31 -25 12z m21 -485 c2 -18 4 -25 12 -45
24 -55 145 -430 139 -431 -47 -4 -212 -2 -212 3 0 4 -12 4 -27 0 -16 -4 -37
-6 -48 -6 -11 1 -27 2 -37 3 -19 1 -18 11 5 65 9 21 17 45 17 52 0 8 4 22 9
32 10 18 44 110 47 127 1 6 8 24 15 40 7 17 13 32 14 35 0 3 11 35 24 73 21
63 39 86 42 52z"/>
<path d="M9051 7721 c0 -721 3 -1311 7 -1312 4 0 240 -1 525 -2 335 -1 521 2
525 8 3 5 6 156 5 334 l-2 324 42 -40 c23 -21 69 -64 102 -95 33 -31 90 -85
127 -120 68 -64 78 -73 183 -162 32 -28 71 -61 85 -74 43 -40 183 -129 220
-140 57 -18 88 -22 230 -28 106 -5 1515 -9 1568 -5 9 1 11 68 6 319 -3 174 -7
385 -8 469 -1 84 -4 155 -7 158 -3 3 -194 7 -425 10 -968 13 -911 11 -939 33
l-26 20 56 39 c304 208 432 484 391 838 -18 148 -56 242 -148 368 -53 72 -180
194 -226 218 -15 8 -29 17 -32 20 -3 3 -34 20 -70 37 -79 37 -186 69 -260 78
-30 3 -477 8 -992 11 l-937 5 0 -1311z m1907 1135 c295 -31 565 -291 598 -576
6 -55 9 -205 4 -205 -1 0 -4 -13 -6 -30 -6 -40 -45 -159 -54 -165 -4 -3 -10
-15 -14 -27 -10 -31 -79 -119 -135 -172 -56 -53 -128 -102 -243 -166 -87 -48
-87 -48 -73 -74 18 -33 94 -113 167 -174 l56 -48 309 -5 c169 -2 447 -6 616
-8 170 -2 311 -7 315 -11 4 -3 8 -61 9 -128 1 -67 4 -206 6 -309 l4 -188 -36
-1 c-130 -3 -1270 1 -1376 6 -143 5 -168 9 -205 27 -24 12 -139 95 -150 108
-3 3 -14 13 -26 21 -30 20 -217 188 -330 296 -28 26 -113 107 -189 178 -76 72
-163 154 -194 183 l-56 54 -3 -35 c-2 -19 -2 -215 0 -436 l3 -401 -35 -1 c-57
0 -663 -1 -686 0 l-22 1 0 1151 0 1151 847 -5 c465 -3 870 -8 899 -11z"/>
<path d="M9944 8398 c-5 -7 -8 -459 -5 -548 1 -14 45 -15 369 -14 202 0 383 4
402 8 63 14 141 83 171 150 55 126 11 289 -97 352 -88 52 -121 56 -492 59
-209 2 -345 -1 -348 -7z m685 -162 c81 -16 113 -50 115 -122 1 -52 -27 -94
-71 -109 -17 -6 -146 -10 -299 -10 l-269 0 -3 114 c-1 63 -1 120 2 126 5 13
460 13 525 1z"/>
<path d="M4468 6282 c-10 -2 -33 -54 -66 -150 -28 -81 -85 -246 -127 -367 -42
-121 -78 -227 -80 -235 -9 -34 -56 -166 -65 -182 -6 -10 -10 -25 -10 -33 0 -8
-4 -23 -9 -33 -6 -9 -24 -60 -42 -112 -17 -52 -68 -198 -111 -325 -44 -126
-102 -293 -128 -370 -88 -257 -237 -689 -259 -749 -11 -33 -18 -62 -16 -65 3
-3 160 -6 348 -8 188 -2 408 -4 490 -6 l147 -2 25 80 c13 44 35 120 50 169 14
50 28 92 31 95 5 5 659 3 877 -3 59 -1 59 -1 72 -38 7 -21 12 -38 11 -38 -2 0
18 -62 43 -137 l46 -137 280 2 c154 1 378 2 498 3 119 1 217 3 217 4 0 1 -7
19 -15 39 -8 20 -15 37 -14 38 0 3 -3 13 -35 101 -14 37 -25 68 -25 70 0 1 -2
9 -5 17 -3 8 -30 87 -60 175 -78 227 -78 227 -93 262 -7 17 -13 34 -13 38 0 8
-97 290 -110 320 -8 18 -20 53 -26 80 -2 6 -19 55 -40 110 -20 55 -40 114 -44
130 -4 17 -13 44 -20 60 -7 17 -14 35 -16 40 -1 6 -33 100 -72 210 -38 110
-76 220 -85 245 -8 25 -47 137 -87 250 -39 113 -89 257 -111 320 -22 63 -44
119 -49 124 -10 10 -970 14 -970 4 0 -4 -6 -5 -14 -2 -16 6 -292 11 -318 6z
m324 -162 c40 3 95 2 123 -1 27 -3 67 -2 87 1 22 4 38 3 38 -2 0 -5 5 -6 10
-3 10 6 183 10 205 5 6 -1 15 -2 20 -1 21 4 378 2 381 -2 6 -6 48 -124 159
-447 19 -58 40 -113 45 -122 6 -10 10 -23 10 -30 0 -6 14 -49 31 -96 17 -46
32 -89 34 -96 1 -6 5 -18 8 -26 4 -8 41 -114 83 -235 41 -121 91 -263 109
-315 18 -52 52 -149 75 -215 22 -66 53 -154 68 -195 14 -41 27 -78 28 -82 1
-5 3 -10 4 -13 1 -3 3 -8 5 -12 1 -5 4 -15 8 -23 10 -26 68 -194 72 -210 2 -8
18 -53 35 -99 16 -46 30 -87 30 -91 0 -4 -132 -8 -294 -8 -161 -1 -297 -2
-302 -3 -45 -8 -66 10 -78 70 -2 9 -6 23 -9 31 -3 8 -22 67 -42 132 l-36 116
-307 2 c-169 1 -432 3 -585 4 -153 1 -280 -1 -283 -6 -3 -4 -23 -69 -45 -145
-64 -220 -52 -198 -106 -196 -27 1 -171 3 -320 5 -189 2 -273 6 -273 14 0 6 9
37 20 70 12 32 22 64 24 69 2 6 6 17 9 25 3 8 13 35 21 60 8 25 33 97 55 160
157 452 290 840 390 1135 39 116 76 219 80 230 5 11 35 97 67 190 32 94 72
211 89 260 l32 90 64 3 c35 1 69 4 74 6 6 2 11 0 12 -3 2 -3 36 -4 75 -1z"/>
<path d="M5120 5755 c0 -8 -4 -23 -9 -33 -5 -9 -26 -64 -47 -122 -20 -58 -41
-116 -47 -130 -5 -14 -11 -29 -12 -35 -5 -21 -114 -314 -123 -332 -6 -10 -11
-21 -11 -25 -3 -15 -10 -34 -71 -203 -34 -93 -66 -177 -70 -186 -5 -8 -6 -19
-2 -25 5 -7 782 -15 782 -8 0 4 -23 73 -30 89 -4 11 -36 103 -70 205 -34 102
-64 192 -67 200 -3 8 -7 20 -8 25 -3 10 -83 248 -92 275 -4 8 -7 20 -9 25 -1
6 -21 64 -44 130 -23 66 -44 130 -47 143 -6 25 -23 30 -23 7z m40 -567 c0 -4
5 -19 12 -35 6 -15 12 -30 12 -33 1 -3 23 -69 50 -148 26 -79 46 -145 44 -147
-4 -4 -264 -9 -309 -6 -16 1 -12 20 24 111 3 8 24 67 47 130 22 63 45 124 50
135 5 11 14 38 21 59 l12 39 18 -49 c11 -27 19 -52 19 -56z"/>
<path d="M11067 6274 c-1 -1 -51 -4 -112 -7 -64 -4 -141 -15 -185 -27 -86 -24
-224 -88 -257 -119 -12 -12 -25 -21 -29 -21 -9 0 -134 -132 -134 -141 0 -4 -6
-14 -13 -21 -35 -37 -98 -189 -114 -278 -4 -19 -7 -87 -7 -150 1 -233 72 -379
305 -632 48 -51 100 -109 115 -128 16 -19 34 -39 40 -45 6 -5 25 -29 42 -52
l32 -41 -52 -4 c-29 -2 -370 -3 -758 -3 -729 2 -760 4 -760 42 0 7 4 13 8 13
26 0 200 151 264 228 30 37 99 151 104 172 0 3 6 19 13 35 27 66 53 182 55
249 8 208 -95 439 -274 617 -118 117 -242 194 -385 239 -75 23 -76 23 -145 36
-42 7 -1833 14 -1856 7 -11 -4 -13 -2591 -1 -2609 3 -6 203 -11 519 -12 l513
-3 1 336 c1 185 4 338 7 342 6 5 31 -16 151 -132 52 -49 113 -107 260 -240 6
-6 38 -33 71 -60 33 -28 62 -52 65 -55 3 -3 30 -24 60 -46 93 -70 146 -97 235
-120 52 -14 305 -18 1245 -18 899 -1 1160 3 1250 18 14 3 39 7 55 10 17 3 42
8 58 11 51 10 132 52 196 101 227 172 345 401 336 654 -5 168 -37 247 -169
420 -41 53 -301 381 -351 442 -14 17 -35 54 -35 61 0 2 277 3 615 3 543 -1
615 0 616 14 1 8 2 216 3 463 l1 447 -580 1 c-319 0 -678 1 -798 2 -120 1
-219 1 -220 1z m1373 -164 l65 0 -1 -292 c-1 -161 -2 -298 -3 -303 -1 -7 -202
-10 -589 -9 -664 2 -616 8 -646 -80 -25 -73 -21 -100 27 -174 24 -37 50 -74
59 -82 8 -9 17 -20 19 -26 2 -6 21 -31 41 -55 21 -24 69 -84 108 -134 39 -49
80 -100 91 -112 53 -63 151 -198 170 -236 32 -62 48 -142 45 -227 -7 -160 -69
-293 -196 -420 -129 -127 -194 -151 -445 -167 -141 -9 -2062 -10 -2213 -1 -90
5 -112 10 -167 38 -35 18 -72 40 -82 49 -10 9 -36 29 -58 45 -22 17 -42 32
-45 35 -3 4 -39 35 -80 71 -41 36 -84 74 -96 85 -11 11 -77 72 -145 136 -68
64 -149 140 -179 169 -107 102 -238 222 -259 236 -20 14 -21 14 -22 -8 -1 -13
0 -27 1 -33 1 -5 1 -39 0 -75 -1 -36 -2 -220 -3 -410 l-2 -345 -353 0 c-309
-1 -354 1 -360 15 -4 8 -7 526 -7 1150 l0 1135 810 0 c541 0 832 -3 875 -11
75 -12 158 -38 215 -67 22 -11 41 -19 43 -18 1 1 28 -17 60 -40 258 -187 395
-477 330 -703 -6 -22 -13 -47 -14 -55 -1 -7 -20 -50 -42 -95 -60 -125 -196
-255 -357 -342 -99 -53 -105 -57 -105 -76 0 -21 134 -158 188 -192 21 -13 61
-27 88 -31 74 -11 1448 -14 1534 -3 107 12 125 22 155 81 29 59 30 75 10 123
-12 30 -83 129 -118 166 -7 7 -37 42 -67 76 -30 35 -73 83 -95 106 -133 139
-202 246 -236 366 -17 62 -18 202 -3 279 14 67 59 172 90 211 57 69 91 103
142 137 53 36 162 87 162 77 0 -3 8 0 18 5 27 15 79 22 202 27 63 3 118 6 123
7 5 2 823 0 1317 -3z"/>
<path d="M7839 5625 c-1 0 -2 -125 -3 -277 -1 -242 1 -278 14 -279 8 0 24 -3
35 -6 11 -3 157 -7 325 -9 244 -3 317 -1 368 11 79 19 136 54 189 118 23 28
44 112 42 167 -4 95 -68 194 -156 239 -33 18 -64 23 -164 27 -88 4 -545 10
-650 9z m609 -169 c111 -3 137 -7 154 -22 44 -41 60 -103 36 -147 -36 -68 -72
-75 -383 -73 l-260 1 0 120 c0 66 3 122 7 125 7 5 234 4 446 -4z"/>
<path d="M58 6262 c-13 -2 -5 -33 42 -170 31 -92 81 -237 110 -322 29 -85 120
-353 202 -595 82 -242 162 -478 178 -525 16 -47 88 -258 160 -470 72 -212 143
-420 157 -462 26 -78 26 -78 62 -79 130 -3 642 -1 644 2 2 2 45 119 96 259
161 445 172 475 181 495 5 11 32 87 61 168 l53 148 24 -63 c13 -35 25 -70 27
-78 2 -8 36 -107 75 -220 40 -113 78 -223 85 -245 7 -22 47 -139 89 -260 42
-120 76 -220 76 -222 0 -2 155 -3 345 -3 190 0 345 2 345 3 0 2 32 96 71 208
38 112 85 249 104 304 31 93 102 299 175 510 37 109 37 109 38 115 1 3 20 57
42 120 23 63 48 135 55 160 7 25 30 90 50 145 20 55 38 107 40 115 2 8 24 74
49 145 159 463 276 806 276 809 0 1 -224 1 -497 1 l-498 -1 -12 -34 c-6 -19
-46 -134 -88 -255 -42 -121 -91 -262 -109 -314 -31 -92 -33 -94 -44 -65 -12
30 -69 197 -167 489 -32 94 -62 174 -66 179 -13 14 -948 14 -959 0 -5 -5 -23
-50 -40 -100 -17 -49 -34 -96 -37 -104 -3 -8 -7 -19 -8 -25 -3 -9 -59 -167
-111 -312 -9 -23 -14 -44 -12 -46 2 -2 -2 -10 -8 -18 -7 -8 -15 -29 -19 -47
-8 -40 -18 -33 -38 28 -32 92 -117 336 -124 350 -3 8 -7 20 -9 25 -8 28 -87
251 -90 254 -4 5 -952 8 -976 3z m861 -168 c8 -9 14 -26 91 -249 22 -66 45
-129 49 -140 5 -11 14 -33 19 -50 63 -179 178 -496 191 -527 l17 -40 21 64
c12 34 45 128 73 208 28 80 55 156 60 170 4 14 36 104 70 200 34 96 76 217 94
267 18 51 35 96 39 99 5 5 561 9 708 5 25 -1 29 -10 83 -173 32 -95 62 -182
66 -193 5 -11 36 -99 68 -195 64 -188 135 -378 157 -419 l13 -26 12 30 c7 17
27 73 45 125 18 52 59 167 90 255 31 88 81 232 112 320 30 88 63 185 74 215
l19 55 328 0 329 0 -90 -260 c-49 -143 -97 -285 -107 -315 -10 -30 -55 -161
-100 -290 -67 -193 -102 -296 -115 -340 -1 -3 -4 -12 -8 -20 -3 -8 -15 -42
-26 -75 -16 -49 -68 -200 -215 -627 -3 -10 -9 -26 -13 -35 -3 -10 -7 -20 -8
-23 0 -3 -9 -30 -20 -60 -10 -30 -18 -56 -18 -57 0 -1 -16 -48 -36 -105 l-36
-103 -230 0 -229 0 -64 185 c-35 102 -66 192 -69 200 -3 8 -7 20 -9 25 -1 6
-30 89 -64 185 -34 96 -64 184 -67 195 -3 11 -9 29 -13 40 -9 21 -90 253 -94
270 -2 6 -7 21 -13 35 -5 14 -27 80 -48 147 -22 68 -42 119 -45 115 -7 -7 -16
-33 -128 -337 -68 -185 -99 -270 -247 -680 -40 -110 -84 -230 -98 -267 -15
-38 -24 -68 -21 -68 3 0 -2 -7 -11 -16 -13 -14 -43 -16 -193 -15 -97 1 -197 2
-221 4 l-43 2 -42 120 c-24 66 -43 122 -44 125 0 3 -3 12 -6 20 -3 8 -28 83
-56 165 -29 83 -53 155 -54 160 -1 6 -4 15 -7 20 -3 6 -11 30 -18 55 -7 25
-17 54 -22 65 -8 19 -138 398 -143 420 -2 6 -6 17 -9 25 -9 22 -118 342 -122
360 -2 8 -11 35 -20 60 -9 25 -18 52 -20 60 -2 8 -38 114 -80 235 -42 121 -78
225 -79 230 -2 6 -6 17 -9 25 -32 83 -48 143 -39 149 15 9 633 4 641 -5z"/>
</g>
</svg>
